<?xml version="1.0" encoding="UTF-8" standalone="no"?>
<svg
   id="Layer_1"
   data-name="Layer 1"
   viewBox="0 0 1.5 1.5"
   width="32"
   height="32"
   version="1.1"
   sodipodi:docname="keranjang.svg"
   inkscape:version="1.1.2 (0a00cf5339, 2022-02-04)"
   xmlns:inkscape="http://www.inkscape.org/namespaces/inkscape"
   xmlns:sodipodi="http://sodipodi.sourceforge.net/DTD/sodipodi-0.dtd"
   xmlns="http://www.w3.org/2000/svg"
   xmlns:svg="http://www.w3.org/2000/svg">
  <defs
     id="defs7" />
  <sodipodi:namedview
     id="namedview5"
     pagecolor="#ffffff"
     bordercolor="#666666"
     borderopacity="1.0"
     inkscape:pageshadow="2"
     inkscape:pageopacity="0.0"
     inkscape:pagecheckerboard="0"
     showgrid="false"
     inkscape:zoom="7.9439027"
     inkscape:cx="7.9306107"
     inkscape:cy="12.336506"
     inkscape:window-width="1280"
     inkscape:window-height="973"
     inkscape:window-x="0"
     inkscape:window-y="25"
     inkscape:window-maximized="1"
     inkscape:current-layer="Layer_1" />
  <path
     d="m 0.7189483,0.75 h 0.062604 v 0.5 h -0.062604 z m 0.3443238,0.5 h 0.062604 v -0.5 h -0.062604 z m -0.6886477,0 h 0.062604 V 0.75 H 0.3746244 Z M 1.5,0.5 1.3845576,1.3644374 C 1.3741656,1.4416874 1.3074916,1.5 1.2293615,1.5 H 0.270576 C 0.192383,1.5 0.1257721,1.441688 0.1153798,1.3643749 L 0,0.5 H 0.190505 C 0.221745,0.2191875 0.4607054,0 0.7502504,0 1.0397955,0 1.2787562,0.2191875 1.3099958,0.5 Z m -1.246202,0 H 1.2467654 C 1.2157764,0.25375 1.0051753,0.0625 0.7502504,0.0625 0.4953256,0.0625 0.2847246,0.25375 0.2537354,0.5 Z M 1.4285059,0.5625 H 0.0714942 L 0.1774833,1.356125 C 0.1836233,1.4025 0.2236223,1.4375 0.2705133,1.4375 h 0.958723 c 0.046891,0 0.086957,-0.035 0.093155,-0.081375 L 1.4283178,0.5625 Z"
     id="path2"
     style="stroke-width:0.0625523" />
</svg>
