<?xml version="1.0" encoding="UTF-8" standalone="no"?>
<svg
   id="Layer_1"
   data-name="Layer 1"
   viewBox="0 0 1.5 1.5"
   width="32"
   height="32"
   version="1.1"
   sodipodi:docname="warung.svg"
   inkscape:version="1.1.2 (0a00cf5339, 2022-02-04)"
   xmlns:inkscape="http://www.inkscape.org/namespaces/inkscape"
   xmlns:sodipodi="http://sodipodi.sourceforge.net/DTD/sodipodi-0.dtd"
   xmlns="http://www.w3.org/2000/svg"
   xmlns:svg="http://www.w3.org/2000/svg">
  <defs
     id="defs7" />
  <sodipodi:namedview
     id="namedview5"
     pagecolor="#ffffff"
     bordercolor="#666666"
     borderopacity="1.0"
     inkscape:pageshadow="2"
     inkscape:pageopacity="0.0"
     inkscape:pagecheckerboard="0"
     showgrid="false"
     inkscape:zoom="5.6171876"
     inkscape:cx="13.173852"
     inkscape:cy="8.3671765"
     inkscape:window-width="1280"
     inkscape:window-height="973"
     inkscape:window-x="0"
     inkscape:window-y="25"
     inkscape:window-maximized="1"
     inkscape:current-layer="Layer_1" />
  <path
     d="M 1.5,0.53125 C 1.5,0.528687 1.4996875,0.526125 1.4990625,0.523687 l -0.125,-0.5 C 1.3705625,0.00975 1.3580625,0 1.34375,0 H 0.15625 C 0.1419375,0 0.1294375,0.00975 0.1259375,0.0236875 l -0.125,0.5 C 3.125e-4,0.5261875 0,0.5286875 0,0.53125 0,0.5906875 0.023875,0.6446875 0.0625,0.6841875 V 1.28125 C 0.0625,1.401875 0.160625,1.5 0.28125,1.5 h 0.4375 C 0.839375,1.5 0.9375,1.401875 0.9375,1.28125 V 0.728875 C 0.9764375,0.7103125 1.009125,0.6805625 1.03125,0.6438125 1.0695625,0.707375 1.13925,0.75 1.21875,0.75 h 0.0625 C 1.31475,0.75 1.346563,0.742375 1.375,0.728875 V 1.46875 C 1.375,1.486 1.389,1.5 1.40625,1.5 1.4235,1.5 1.4375,1.486 1.4375,1.46875 V 0.6866875 c 0,-8.125e-4 0,-0.001625 -1.25e-4,-0.002437 C 1.4760625,0.64475 1.5,0.59075 1.5,0.5311875 Z M 0.71875,1.4375 H 0.28125 C 0.195125,1.4375 0.125,1.367375 0.125,1.28125 V 1.125 h 0.75 V 1.28125 C 0.875,1.367375 0.804875,1.4375 0.71875,1.4375 Z M 0.875,1.0625 H 0.125 V 0.728875 C 0.1534375,0.7424375 0.18525,0.75 0.21875,0.75 h 0.0625 c 0.0795,0 0.1491875,-0.042625 0.1875,-0.1061875 C 0.5070625,0.707375 0.57675,0.75 0.65625,0.75 h 0.1875 C 0.854375,0.75 0.8648125,0.74925 0.875,0.74775 Z M 1.21875,0.6875 C 1.1325625,0.6875 1.0625,0.617375 1.0625,0.53125 1.0625,0.514 1.0485,0.5 1.03125,0.5 1.014,0.5 1,0.514 1,0.53125 1,0.617375 0.9299375,0.6875 0.84375,0.6875 H 0.65625 C 0.570125,0.6875 0.5,0.617375 0.5,0.53125 0.5,0.514 0.486,0.5 0.46875,0.5 0.4515,0.5 0.4375,0.514 0.4375,0.53125 0.4375,0.617375 0.367375,0.6875 0.28125,0.6875 H 0.21875 C 0.1796875,0.6875 0.143875,0.6730625 0.1164375,0.64925 0.11525,0.648 0.114,0.646875 0.1126875,0.645875 0.0826875,0.6180625 0.0635625,0.57875 0.0625,0.5349375 L 0.1806875,0.0625 H 0.4375 v 0.21875 c 0,0.01725 0.014,0.03125 0.03125,0.03125 C 0.486,0.3125 0.5,0.2985 0.5,0.28125 V 0.0625 H 1 V 0.28125 C 1,0.2985 1.014,0.3125 1.03125,0.3125 1.0485,0.3125 1.0625,0.2985 1.0625,0.28125 V 0.0625 h 0.2568125 l 0.118125,0.4724375 C 1.4355,0.6194375 1.366125,0.6875 1.28125,0.6875 Z"
     id="path2"
     style="stroke-width:0.0625" />
</svg>
